<?xml version="1.0" encoding="utf-8"?>
<!-- Generator: Adobe Illustrator 18.1.0, SVG Export Plug-In . SVG Version: 6.00 Build 0)  -->
<svg version="1.1" id="Capa_1" xmlns="http://www.w3.org/2000/svg" xmlns:xlink="http://www.w3.org/1999/xlink" x="0px" y="0px"
	 viewBox="0 0 1302.5 1285.2" enable-background="new 0 0 1302.5 1285.2" xml:space="preserve">
<g>
	<path fill="#FBAB36" d="M742.2,322.9c0.2-60.6-14.5-123.2-52.7-171.4C647.9,99,584.5,71.8,522.2,52c-14.4-4.6-28.9-8.8-43.3-13
		C462.4,21.6,440.3,9.8,417,4c-33-8.2-68-3.2-99.5,8.7c-61,23-117.4,71.2-132.5,136.7c-8.3,36.3-5.8,74.3-15.5,110.4
		c-4.5,16.6-12.3,31.6-22.2,45.7c-9.2,13.1-19.5,25.3-28.8,38.4c-9,12.6-17,26.2-21.2,41.1c-4.2,14.7-4.4,30.1-1,44.9
		c7.1,31.1,27.3,57.9,50,79.6c48.6,46.6,110.6,76.8,175.3,94.1c32.9,8.8,66.6,14.3,100.4,17c36.4,3,73.7,3.9,109.8-1.8
		c63.5-10,121.6-45.9,157.6-99.5c20.8-30.9,33.4-66.5,41.7-102.6C738.2,386,742.1,354.6,742.2,322.9z"/>
	<path fill="#FBAB36" d="M605.4,286.6c-7.8-12.9-18-24.3-29.8-33.7c-12.2-9.7-26.2-17.2-40.9-22.4c-16-5.6-32.9-8.3-49.8-8.6
		c-18.5-0.3-36.5,3.6-53.6,10.3c-16.3,6.4-31.5,15-46.8,23.4c-15.6,8.5-31.4,16.8-48.2,22.5c-9.7,3.2-19.6,5.8-29.8,6
		c-8.4,0.2-16.7-0.7-25-1.1c-3.7,4.6-7.2,9.4-10.4,14.3c-5.7,8.9-10.5,18.5-12.9,28.8c-2.5,10.6-2.2,21.6,0.6,32.2
		c2.7,9.9,7.3,19.1,14.9,26.2c6.3,5.9,13.8,10.1,21.3,14.2c8.1,4.4,16.3,8.8,23.8,14.2c7.9,5.7,15.1,12.5,21.1,20.1
		c6.2,7.7,11,16.2,15.1,25.2c4,9,7.5,18.2,11.4,27.2c4,9.2,8.5,18.3,14.4,26.5c5.3,7.4,11.8,13.9,19.2,19.3
		c14.7,10.9,32.5,18.2,50.6,20.8c16.6,2.4,34.3,0.4,48.5-9.2c13.5-9.1,23.3-22.8,32.8-35.8c9.4-12.8,18.7-26.4,31.2-36.4
		c14.4-11.5,28.2-23.8,38.6-39.1c10.6-15.5,17.3-33.5,20.4-52c2.8-16.4,2.9-33.2,0-49.5C619,314.7,613.5,299.9,605.4,286.6z"/>
	<g>
		<g>
			<path fill="#F6EBD9" d="M697.4,562.6c10.2,11.9,17.5,25.9,27.2,40.1c20.1,29.2,37.4,60.1,54.9,90.8
				c17.3,30.2,33.3,63.3,58.7,87.1c26.9,25.1,50.6,50.3,81.7,70.7c60.8,39.7,130.3,64.5,200.5,81.7c3,0.7,6.1,1.5,8.2,3.7
				c1.8,1.8,2.6,4.3,3.3,6.8c3.3,10.9,6.7,21.8,10,32.7c-62.7,53.9-140.3,90.3-221.8,104.3c-42.5,7.3-88.5,8-126.2-13
				c-18.7-10.4-27.8-22.9-39.6-39.5c-12.3-17.4-28.2-32.4-40.6-50.1c-33.7-48.1-60.6-104.1-81.8-158.6
				c-23-58.9-38.1-120.9-44.8-183.8c-1.9-17.6-3.1-35.6,1-52.8c4-17.2,14.1-33.8,29.8-42c16.2-8.4,36.3-6.6,52.8,1.3
				C682.2,547.4,690.4,554.5,697.4,562.6z"/>
		</g>
		<g>
			<path fill="#6FC6DB" d="M949.2,1070.6c2.5-4.9,4.9-9.9,6.9-15.1c2.2-5.6,3.9-11.3,5.5-17c6.4-23,10.1-46.6,11.9-70.4
				c1.7-24,1.4-48.1-1-72c-0.5-5.4-1.2-10.8-2.1-16.1c-17.3-8.6-34.2-18.1-50.4-28.7c-31.2-20.4-54.9-45.6-81.7-70.7
				c-25.4-23.8-41.5-56.8-58.7-87.1c-17.6-30.7-34.9-61.6-54.9-90.8c-9.7-14.1-17-28.2-27.2-40.1c-6.9-8.1-15.2-15.2-26.6-20.6
				c-16.4-7.9-36.6-9.7-52.8-1.3c-15.7,8.1-25.7,24.7-29.8,42c-4,17.2-2.8,35.2-1,52.8c6.7,62.9,21.8,124.8,44.8,183.8
				c21.2,54.5,48.1,110.5,81.8,158.6c12.4,17.6,28.2,32.6,40.6,50.1c11.8,16.6,20.9,29.1,39.6,39.5c37.7,21,83.7,20.3,126.2,13
				c9-1.5,17.9-3.4,26.7-5.4C947.7,1073.6,948.5,1072.1,949.2,1070.6z"/>
		</g>
	</g>
	<path fill="#F6EBD9" d="M807.9,773.7c-10.7-46.6-25.4-92.5-47.2-135.2c-10.5-20.5-22.5-40.1-36.2-58.6c-14.3-19.2-30.7-36.7-52-48
		c-22.8-12-48.4-18.8-72.7-27c-26.2-8.8-52.4-17.6-78.6-26.4c-2.4-0.8-4.8-2-7.4-1.9c-1.2,0-2.4,0.3-3.6,0.4
		c-5,0.5-9.9,1.1-14.9,1.6c-13.2,1.4-26.5,2.9-39.7,4.3c-4.8,0.5-9.6,1-14.4,1.6c-1.2,0.1-2.4,0.2-3.5,0.4c-2.7,0.5-5.1,2.4-7.4,3.8
		c-23.9,14.4-47.8,28.7-71.8,43.1c-21.7,13-45.1,25.1-64.4,41.6c-18.3,15.7-30.5,36.4-40.3,58.2c-9.8,21.8-17.5,44.4-23.4,67.6
		c-11.8,46.4-16.1,94.5-16.4,142.3c-0.2,48.9,3.9,97.6,9.3,146.2c6.2,55.3,14.1,110.4,23.9,165.1c2.4,13.6,5,27.2,7.6,40.8
		c0.6,3.3,1.3,6.5,1.9,9.8c0.5,2.5,0.5,6.7,2.3,8.7c0.2,0.3,0.3,0.3,0.5,0.4c1.8,1.5,4.4,2.7,6.5,3.8c11.9,6.4,24.6,11.3,37.4,15.6
		c24.4,8.1,49.6,13.8,75,17.8c38.7,6.1,77.9,8.6,117.1,8.7c48.5,0.1,97.3-2.7,145.1-11.3c35.6-6.4,70.9-16,104.3-30.2
		c22.6-9.6,44.5-21.3,64.4-35.8c10.9-7.9,21.4-16.7,30.5-26.8c1.5-1.6,3.2-3.3,4.4-5.2c0.4-0.7,0.7-1.3,0.8-2.1
		c0.5-3-0.1-6.6-0.2-9.7c-0.1-3.8-0.2-7.7-0.3-11.5c-0.4-13.8-0.8-27.7-1.4-41.5c-2.3-55.6-6.4-111.1-12.3-166.4
		C825.3,869.5,818.7,821.2,807.9,773.7z"/>
	<path fill="#139A88" d="M807.9,773.7c-10.7-46.6-25.4-92.5-47.2-135.2c-10.5-20.5-22.5-40.1-36.2-58.6c-14.3-19.2-30.7-36.7-52-48
		c-22.8-12-48.4-18.8-72.7-27c-6.8-2.3-13.6-4.6-20.4-6.9c-0.3,4.2-0.7,8.5-1.1,12.7c-0.8,8.4-1.7,16.9-2.2,25.3
		c-0.5,8.3,0,16.6,0.2,24.9c0.6,19,1.5,38,1.2,57c-0.4,19-1.9,38.1-6.7,56.5c-2.3,8.6-5.3,17-9.3,24.9c-4.3,8.3-9.6,16.7-17.5,22
		c-7,4.7-15.4,6-23.5,4c-8.7-2.1-16.4-7.1-23.1-12.8c-15.9-13.6-26.3-32.1-35.4-50.6c-10.6-21.5-19.1-43.9-28.2-66
		c-4-9.8-8.3-19.5-12.5-29.3c-3.6-8.4-7.3-16.9-11.4-25.1c-4.3-8.6-9.1-17-14.8-24.8c-1.2-1.6-2.4-3.1-3.6-4.7
		c-11,6.6-21.9,13.1-32.9,19.7c-21.7,13-45.1,25.1-64.4,41.6c-18.3,15.7-30.5,36.4-40.3,58.2c-9.8,21.8-17.5,44.4-23.4,67.6
		c-11.8,46.4-16.1,94.5-16.4,142.3c-0.2,48.9,3.9,97.6,9.3,146.2c6.2,55.3,14.1,110.4,23.9,165.1c2.4,13.6,5,27.2,7.6,40.8
		c0.6,3.3,1.3,6.5,1.9,9.8c0.5,2.5,0.5,6.7,2.3,8.7c0.2,0.3,0.3,0.3,0.5,0.4c1.8,1.5,4.4,2.7,6.5,3.8c11.9,6.4,24.6,11.3,37.4,15.6
		c24.4,8.1,49.6,13.8,75,17.8c38.7,6.1,77.9,8.6,117.1,8.7c48.5,0.1,97.3-2.7,145.1-11.3c35.6-6.4,70.9-16,104.3-30.2
		c22.6-9.6,44.5-21.3,64.4-35.8c10.9-7.9,21.4-16.7,30.5-26.8c1.5-1.6,3.2-3.3,4.4-5.2c0.4-0.7,0.7-1.3,0.8-2.1
		c0.5-3-0.1-6.6-0.2-9.7c-0.1-3.8-0.2-7.7-0.3-11.5c-0.4-13.8-0.8-27.7-1.4-41.5c-2.3-55.6-6.4-111.1-12.3-166.4
		C825.3,869.5,818.7,821.2,807.9,773.7z"/>
	<path fill="#F6EBD9" d="M513.3,407.6L416.6,418c4.9,25.5,8.6,51.3,10.9,77.2c0,0,20.6,17.2,50.4,14.6c29.9-2.6,44.3-26.7,44.3-26.7
		C518,458.1,515.1,432.9,513.3,407.6z"/>
	<path fill="#F6EBD9" d="M433.4,466.6c6.8,1.5,13.7,1.8,20.6,1.7c14-0.3,28-2.4,42-1.1c6.7,0.6,13.4,2.2,19.5,5.1
		c1.9,0.9,3.8,2,5.5,3.2c-3.5-22.5-6.1-45.2-7.6-68L416.6,418c2.9,15.1,5.3,30.3,7.4,45.5C427,464.9,430.2,465.9,433.4,466.6z"/>
	<path fill="#F6EBD9" d="M338,281.2c-0.4-16.7-24.7-22.2-37.8-22c-15.3,0.3-29.2,7.1-38.8,19c-15.3,18.9-18.7,46.7-8.4,68.8
		c10.3,22.1,33.7,37.4,58.1,37.9c7.6,0.2,15.2-1,22-4.4c15.4-7.6,23.5-24.7,30.3-40.5L338,281.2z"/>
	<path fill="#F6EBD9" d="M632.3,390.1c-0.3,1-0.6,2.1-0.9,3.1c-3.2,9.7-9.7,18-17.1,24.9c-21.5,20.2-50.6,30.4-79.6,35.6
		c-38.5,6.9-78.4,6.1-116.5-3.1c-22.9-5.5-46-14.6-63.2-31.1c-16-15.4-27.1-39.1-33.5-60.2c-5.5-18.1-8.3-36.7-9-55.5
		c-1-24.8,1.4-49.8,5.9-74.1c3.4-18.5,3.8-36.3,11.8-53.5c8.3-18.1,20-34.8,35.3-47.5c18.4-15.3,40.7-26,64.7-31.2
		c1.4-0.3,2.8-0.6,4.2-0.9c0.6-0.1,1.2-0.2,1.7-0.3c7.3-2.1,14.8-3.6,22.3-4.4c1.1-0.1,2.2-0.2,3.4-0.3c26.7-2.1,53.8,3.8,78.1,15.3
		c47.9,22.7,85.2,69.5,90.7,122.3c0.9,8.8,1,17.7,0.8,26.6c-0.3,9.3-0.9,18.6-1.2,27.9c-0.9,22.3-0.2,44.7,1.9,66.9
		c0.1,0.9,0.3,1.8,0.4,2.6c0.6,4.5,1.1,8.9,1.2,13.3C634.2,374.3,634.3,382.4,632.3,390.1z"/>
	<path fill="#F6EBD9" d="M312.6,306.4c2.4,0.5,4.9,0.9,7.4,1.2c11.5,1.3,23.5,0.6,34.6-2.7c37.3-11.1,60.9-46.7,72.3-81.9
		c5.7-17.8,8.6-36.1,9.6-54.7c0.5-10.2,0.3-20.5-0.9-30.7c-1-8.4-2.8-16.9-6.2-24.7c-1-1.9-2-3.8-2.9-5.7c-0.3-0.6,0.6-1.1,0.9-0.5
		c0,0,0,0.1,0.1,0.1c0,0,0,0,0,0c0,0,0,0,0,0c1.1,1.8,2,3.7,2.9,5.7c0.9,1.7,1.8,3.4,2.8,5.1c7.7,13.2,17.2,25.2,27.5,36.5
		c10.5,11.4,21.7,22.4,33.4,32.5c22.9,19.9,49.6,35.7,78.9,44.1c19,5.4,38.6,7.5,58.2,6.8c-0.1-2.8-0.3-5.6-0.6-8.4
		c-5.5-52.8-42.8-99.6-90.7-122.3c-24.2-11.5-51.4-17.4-78.1-15.3c-1.1,0.1-2.2,0.2-3.4,0.3c-7.5,0.8-15,2.3-22.3,4.4
		c-0.6,0.1-1.2,0.2-1.7,0.3c-1.4,0.3-2.8,0.5-4.2,0.9c-24.1,5.2-46.4,15.9-64.7,31.2c-15.4,12.8-27,29.5-35.3,47.5
		c-8,17.3-8.4,35-11.8,53.5c-4.4,24.3-6.9,49.4-5.9,74.1C312.5,304.7,312.6,305.6,312.6,306.4z"/>
	<path fill="#FBAB36" d="M708.1,159.3c-4-12.8-11.2-24.5-19-35.4C674.3,103,655.9,84.5,634.8,70c-21.7-14.9-46.1-25.5-71.9-30.3
		c-26.3-4.9-53.8-3.9-79.5,3.7c-26.5,7.8-49.2,23.7-72.6,37.9c-3.8,2.3-7.6,4.6-11.5,6.7c-1.7-0.5-3.5-1-5.2-1.5
		c-1.7-0.4-3.5,1.2-3.7,2.8c-0.2,1.4,0.5,2.5,1.5,3.2c-0.6,0.8-0.8,1.9-0.3,3c0.6,1.5,2.7,2.6,4.3,1.8c1.4-0.7,2.8-1.5,4.2-2.2
		c21.9,7.1,41.2,20.4,58.8,35.2c20.1,17,38.4,36,58.3,53.3c21.8,18.9,45.2,35.9,69.8,50.9c11.7,7.1,23.6,14.1,36.5,18.8
		c12.1,4.4,25.4,7,38.2,4.2c26.1-5.8,41.4-31.6,47.4-55.9C712.4,187.6,712.4,173,708.1,159.3z"/>
	<path fill="#F6EBD9" d="M423.8,362.8c-5.5-9.4-16.9-16.5-27.8-17.1c-5.2-0.3-10.7,0.9-14.2,5c-3.7,4.4-3.4,10.8-1,15.8
		c4,8.3,12.7,13.2,21.6,14.5c8.1,1.2,21.1,0.2,23.3-9.5C426.3,368.5,425.3,365.4,423.8,362.8z"/>
	<path fill="#F6EBD9" d="M579.4,362.8c7.9-7.5,20.8-11.2,31.5-8.8c5,1.1,10.1,3.8,12.2,8.7c2.3,5.3,0.3,11.3-3.4,15.5
		c-6.1,6.9-15.8,9.1-24.7,8c-8.1-1-20.4-5.6-19.8-15.6C575.4,367.5,577.3,364.9,579.4,362.8z"/>
	<path fill="#34405A" d="M312.2,352.8c-3.3-11.8-6.8-24.2-13.1-34.8c-0.2-0.8-0.7-1.5-1.3-2.1c-2-3-4.1-5.9-6.7-8.6
		c-3.8-4-8-7.5-12.2-11c-2-1.6-5.3-1.3-6.9,0.8c-1.6,2.2-1.3,5.1,0.8,6.9c3.5,2.8,7,5.7,10.2,8.9c-0.1-0.1-0.4-0.4,0,0
		c0.2,0.2,0.5,0.5,0.7,0.7c0.3,0.4,0.7,0.7,1,1.1c0.7,0.8,1.3,1.6,2,2.4c0.6,0.8,1.2,1.6,1.8,2.4c-5.4,7.7-9.3,16.4-11.6,25.6
		c-0.6,2.5,1.7,5.3,4.2,5.5c2.9,0.3,4.8-1.5,5.5-4.2c0-0.1,0.3-1.2,0.3-1.3c0.2-0.5,0.3-1.1,0.5-1.6c0.3-1.1,0.7-2.1,1.1-3.2
		c0.8-2.2,1.7-4.3,2.8-6.4c0.9-1.9,1.8-3.4,2.7-5c0.5,1,0.9,1.9,1.3,2.9c1.6,3.7,2.9,7.5,4.1,11.3c1.4,4.4,2.6,8.9,3.9,13.3
		c0.7,2.5,4.2,3.7,6.4,2.7C312.2,357.9,312.9,355.4,312.2,352.8z"/>
	<path fill="#FBAB36" d="M424.9,141.4c-2-19.1-7-38-15-55.5c-2-4.3-4.1-8.5-6.4-12.6c-0.4-0.8-1.2-1.2-2.1-0.9
		c-0.7,0.3-1.3,1.4-0.9,2.1c1.6,2.8,3.1,5.7,4.5,8.6c-0.1,0-0.3,0-0.4,0.1c-5.4,1.5-11.1,0.8-16.7,0.4c-4.9-0.4-9.9-0.4-14.8,0.2
		c-9.5,1.2-18.6,4.3-27.1,8.7c-17.8,9.3-32.5,23.7-44.4,39.7c-13.1,17.6-23,37.7-28.1,59.1c-5,20.9-5.3,43.1-0.2,64.1
		c2.5,10.3,6.1,20.3,11.2,29.6c4.9,9.1,11.6,17.3,21.5,21.2c9.8,3.9,20.9,3.5,31.1,1c9.3-2.3,18-6.5,25.9-11.8
		c16.1-10.9,28.7-26.4,38.5-43c9.8-16.6,16.6-34.9,20.6-53.7C425.9,179.9,426.9,160.5,424.9,141.4z"/>
	<g>
		<g>
			<path fill="#34405A" d="M398.7,335.5c0.7-10.4,3-31.8,17.6-31.5c7.2,0.1,10.6,8.1,11.1,14.3c0.5,6.8-0.7,13.8-1.3,20.6
				c-0.5,5.2,7.6,5.1,8.1,0c0.9-9.4,3-19.8-0.3-28.9c-2.7-7.6-9.1-13.9-17.5-14c-20-0.2-24.6,24.3-25.6,39.5
				C390.3,340.7,398.3,340.7,398.7,335.5L398.7,335.5z"/>
		</g>
		<g>
			<path fill="#34405A" d="M575.2,337c0.5-7.1,0.6-14.4,2.2-21.4c1.3-5.7,4.7-16.5,12-16.4c15.5,0.1,12.8,28,13.2,37.8
				c0.2,5.2,8.3,5.2,8.1,0c-0.7-15,1.2-45.7-21.3-45.9c-9.2-0.1-15.1,8.5-18,16.3c-3.5,9.4-3.7,19.8-4.3,29.6
				C566.8,342.1,574.9,342.1,575.2,337L575.2,337z"/>
		</g>
		<path fill="#34405A" d="M439.5,238.5c-1.9-1.6-4.5,1.4-5.9,2.5c-1.6,1.3-3,2.4-4.5,3.5c-3.5,2.4-7.1,4.6-10.8,6.6
			c-7.5,4.1-15.4,7.3-23.3,10.5c-2.2,0.9-4.4,1.6-6.6,2.6c-1.1,0.5-2.3,1-3.4,1.4c-1.3,0.6-2.5,1.5-3.6,2.4
			c-1.1,0.8-1.4,2.3-1.5,3.6c0,0.8-0.1,3,1.1,3.1c0.9,0.1,1.9,0.3,2.8,0.3c1.1-0.1,2.3-0.4,3.3-0.6c2.1-0.4,4.1-1,6.2-1.5
			c4-1.1,8.1-2.2,12-3.7c7.9-2.8,15.7-6.2,22.7-10.8c2.2-1.4,4.3-2.9,6.3-4.5c0.9-0.7,1.9-1.4,2.7-2.2c1.6-1.6,2.7-3.8,3.2-5.9
			C441,243.7,441.3,240.1,439.5,238.5z"/>
		<path fill="#34405A" d="M575.9,231.8c2.3-1,4,2.6,4.9,4c1.1,1.7,2.2,3.2,3.3,4.6c2.6,3.3,5.5,6.4,8.6,9.3
			c6.1,6,12.8,11.3,19.5,16.5c1.9,1.4,3.8,2.8,5.6,4.3c1,0.8,1.9,1.5,2.9,2.3c1.1,0.9,1.9,2.1,2.8,3.3c0.8,1.1,0.8,2.6,0.5,3.9
			c-0.2,0.8-0.8,2.9-2,2.7c-0.9-0.1-1.9-0.2-2.8-0.5c-1-0.4-2-1-3-1.5c-1.9-1-3.7-2.1-5.5-3.2c-3.6-2.2-7.2-4.4-10.6-6.8
			c-6.8-4.9-13.3-10.3-18.9-16.7c-1.7-2-3.3-4-4.9-6.1c-0.7-0.9-1.4-1.9-2-2.9c-1.1-2-1.5-4.4-1.5-6.6
			C573.1,236.4,573.8,232.8,575.9,231.8z"/>
	</g>
	<g>
		<path fill="#34405A" d="M497.5,280.2c-1.2,20.9-1.1,41.9,0.3,62.8c0.1,2.1,1.7,4.2,4,4c4.4-0.3,5.8,4.7,2,6.9
			c-3.8,2.3-7.2-1.1-8.7-4.4c-2.1-4.7-9-0.6-7,4.1c4,9.2,16.5,12.7,23.3,4.3c6.2-7.7,0.3-19.6-9.7-18.9c1.3,1.3,2.7,2.7,4,4
			c-1.4-20.9-1.5-41.9-0.3-62.8C505.9,275,497.8,275,497.5,280.2L497.5,280.2z"/>
	</g>
	<g>
		<path fill="#34405A" d="M436.3,364.8c13.6,20.1,39.4,29.5,62.8,30c24.5,0.5,48.2-9.4,65.6-26.5c3.7-3.6-2-9.3-5.7-5.7
			c-15.5,15.2-36.3,24.1-58.1,24.1c-21,0-45.4-7.9-57.6-26C440.3,356.5,433.3,360.5,436.3,364.8L436.3,364.8z"/>
	</g>
</g>
<path fill="#FBAB36" d="M1152,849.6c-4.2-9.2-10.1-17.7-17.5-24.5c-7.4-6.8-16.1-12.1-25.2-16.3c-19.2-8.7-40.2-13.7-60.8-18.2
	c-44.6-9.8-90.6-13.9-136.2-10.5c-43.9,3.3-88.2,13.1-127.7,32.8c-9.4,4.7-18.5,9.9-27.1,15.8c-0.5,0.3-1,0.7-1.5,1
	c-1.2,0.3-2.3,1-2.9,2c-7,4.9-14,10.4-18.9,17.4c-5.9,8.5-6.3,18.9-1.7,28c2.9,5.7,7.6,10.3,13.1,13.5c-2,26.9-1.4,53.9,5.5,80.2
	c4.9,18.6,12.8,36.7,24.4,52.1c11.9,15.9,27.2,28.4,45.2,36.6c18.9,8.7,39.3,13,59.8,16.1c21.4,3.2,43,5.8,64.6,7.4
	c43.4,3.3,88.5,2,129.5-14.2c19.8-7.8,38.4-18.9,51.8-35.8c13.3-16.8,22.5-37.1,28.8-57.5c6.4-20.8,9.6-42.7,9.2-64.4
	C1164,890.3,1160.8,868.7,1152,849.6z"/>
<g>
	<path fill="#FBB6CE" d="M872,1082.5c-19.3,9.6-37.9,20.3-54.9,32.5c-8,5.7-15.7,11.8-22.8,18.4c-7.9,7.3-15.7,15.1-21.6,23.6
		c-6.3,9-10.6,19.3-10.6,29.8c0,11.2,5,21.7,14.3,29.8c7.8,6.7,18,11.4,28.2,15.2c11.1,4.1,22.5,7.4,34.3,9.8
		c25.4,5.1,51.7,6.6,77.8,7.2c7.6,0.2,14.9-5.7,14.6-12.1c-0.4-6.7-6.4-11.9-14.6-12.1c-16.2-0.4-32.4-1.1-48.4-2.9
		c1.3,0.1,2.6,0.3,3.9,0.4c-18.3-2.1-36.4-5.5-53.4-11.4c1.2,0.4,2.3,0.8,3.5,1.2c-8-2.8-16-6-23-10.5c1,0.6,2,1.3,3,1.9
		c-3-2-5.8-4.2-8.1-6.7c0.8,0.8,1.5,1.6,2.3,2.4c-1.7-1.9-3.1-3.9-4.2-6c0.5,1,1,1.9,1.5,2.9c-1.3-2.6-2.1-5.2-2.6-8
		c0.2,1.1,0.3,2.1,0.5,3.2c-0.4-3.2-0.4-6.3,0.1-9.5c-0.2,1.1-0.3,2.1-0.5,3.2c0.7-4,2-7.8,3.9-11.4c-0.5,1-1,1.9-1.5,2.9
		c3.4-6.6,8.2-12.6,13.5-18.2c-0.8,0.8-1.5,1.6-2.3,2.4c13.2-14,28.9-26.3,45.9-37.1c-1,0.6-2,1.3-3,1.9c12.5-8,25.6-15.2,39.1-21.9
		c6.5-3.3,9.6-11,5.2-16.5C887.7,1081.4,879,1079,872,1082.5L872,1082.5z"/>
</g>
<path fill="#FAA7C1" d="M1037.2,1050.9c-3.3-0.2-6.9,0.5-10.1,0.8c-11.8,0.9-23.5,1.8-35.3,2.8c-27.2,2.2-54.9,3.6-81.8-2.3
	c-1.6-0.3-3.1-0.9-4.7-1.2c-1.9-0.3-3.9,1.3-5.7,2.7c-0.2,3-0.3,6.1-0.2,9.2c0.5,13.5,2.1,27.1,6,40.1c0.7,2.2,1.4,4.8,2.3,7.4
	c1-1.1,2-2.2,3.1-3.2c26.6-26.2,66.3-24.7,99.9-34.1c12.5-3.5,24.1-9.1,32.7-18.5C1041.5,1053.3,1039.2,1051,1037.2,1050.9z"/>
<g>
	<path fill="#F6EBD9" d="M1031.6,1087.5c13.5,47.1,53.5,82.4,101.8,90.8c26.5,4.6,52.2,2.3,76.4-9.7c21.3-10.5,38.6-27.5,52.7-46.4
		c16-21.4,27-45.8,37.8-70c4.1-9.2,3-21.1-6.9-26.4c-8.4-4.4-22-2.9-26.4,6.9c-8.9,19.9-17.9,40-29.7,58.4c-1.3,2-2.6,3.9-3.9,5.9
		c-0.8,1.2-1.7,2.4-2.6,3.6c-0.3,0.4-2.5,3.3-1.1,1.6c1.5-2-1.6,2-1.5,1.9c-0.7,0.8-1.3,1.6-2,2.4c-1.7,2-3.5,4-5.3,5.9
		c-3.3,3.4-6.7,6.7-10.3,9.8c-1.1,0.9-5.4,4.3-2.2,1.9c-2.3,1.7-4.7,3.4-7.1,5c-3.7,2.4-7.6,4.6-11.6,6.5c-0.9,0.5-1.9,0.9-2.8,1.3
		c3.8-1.7,0.6-0.3-0.4,0.1c-2.7,1-5.4,1.9-8.1,2.7c-2,0.6-4,1-6.1,1.4c-1.1,0.2-2.2,0.4-3.4,0.6c3.6-0.6-0.4,0-1.3,0.1
		c-5.8,0.5-11.7,0.5-17.6,0c-1-0.1-8.1-1-3.8-0.4c-2.8-0.5-5.6-0.9-8.4-1.6c-5-1.1-9.9-2.5-14.7-4.2c-1.3-0.5-2.6-1-4-1.5
		c-3.1-1.1,4,2-0.9-0.4c-2-1-4.1-2-6.1-3c-4.7-2.5-9-5.4-13.4-8.5c-2.5-1.8,3.3,3-0.4-0.4c-1.2-1-2.4-2-3.6-3.1
		c-1.9-1.8-3.8-3.6-5.6-5.5c-1.8-1.9-3.5-3.9-5.2-5.9c-0.5-0.6-2.1-2.9,0.1,0.2c-0.9-1.3-1.8-2.5-2.7-3.8c-2.9-4.3-5.6-8.9-7.9-13.6
		c0,0-2.2-4.7-1-2c1.1,2.3-0.9-2.3-1.1-2.8c-1-2.7-1.9-5.4-2.7-8.2c-2.8-9.7-13.7-16.7-23.7-13.5
		C1035.2,1067,1028.6,1077.1,1031.6,1087.5L1031.6,1087.5z"/>
</g>
<path fill="#187564" d="M900.9,1054.8c-0.3-0.1-0.6-0.1-0.9-0.1c-11.8,0-22.8,4.4-33.4,9.2c-9.9,4.5-19.6,9.2-29.2,14.3
	c-19.2,10-37.8,21.3-55,34.6c-8.5,6.5-16.6,13.6-24.1,21.2c-3.4,3.4-8.7,7.5-9.1,12.5c-0.2,2.7,0.6,5.4,1.2,8c0.5,2.5,1.1,5,1.8,7.5
	c5.1,20.2,12.8,39.7,22.9,57.9c11.3,20.5,25.6,39.4,42.3,55.9c0.9,0.9,2.7,1.3,3.8,0.5c22.9-17.3,36.8-42.8,47.1-68.9
	c12-30.3,21-62,27.8-93.8c4-18.6,7.1-37.4,9.5-56.2C906,1054.5,902.9,1053.7,900.9,1054.8z"/>
<path fill="#187564" d="M1038.3,1054.7c0.2-0.1,0.5-0.1,0.7-0.1c9.1,0,17.5,3.4,25.6,7.2c7.6,3.5,15.1,7.2,22.5,11.1
	c14.8,7.8,29,16.6,42.2,26.9c6.5,5.1,12.7,10.6,18.5,16.4c2.6,2.6,6.7,5.8,7,9.7c0.2,2.1-0.5,4.2-0.9,6.2c-0.4,2-0.9,3.9-1.4,5.9
	c-3.9,15.7-9.9,30.8-17.6,45c-8.7,15.9-19.7,30.6-32.5,43.5c-0.7,0.7-2.1,1-2.9,0.4c-17.6-13.5-28.2-33.2-36.2-53.5
	c-9.2-23.6-16.1-48.2-21.4-72.9c-3.1-14.5-5.5-29.1-7.3-43.7C1034.5,1054.4,1036.8,1053.8,1038.3,1054.7z"/>
<path fill="#F6EBD9" d="M781.2,944.4c-4.3-9.7-8.7-19.4-13.1-29.1c-0.1-0.2-0.1-0.3-0.2-0.5c-2.8-10.9-8.7-21.1-16.8-28.9
	c-8.1-7.7-18.7-13-30.1-10.5c-10.1,2.3-18.8,10.1-23,19.5c-5,11.3-4.3,24.2-0.4,35.7c6.5,19.4,22.5,37.9,43.7,40.5
	c9.2,1.1,19.1-1.3,26.8-6.5c3.9-2.6,7.3-6,9.8-9.9c1.2-1.9,2.2-4,3-6.2C781.4,947.1,781.9,945.9,781.2,944.4z"/>
<path fill="#34405A" d="M716.3,921c4.9,0,9.9,1,14.5,2.7c-3.2-5.5-7.5-10.3-12.8-14c-2.2-1.5-3.1-4.3-1.7-6.7
	c1.2-2.1,4.5-3.3,6.7-1.7c15.4,10.7,24.9,29,24.1,47.9c-0.1,2.6-2.2,4.9-4.9,4.9c-2.6,0-5-2.2-4.9-4.9c0.2-3.9-0.2-7.8-1-11.5
	c-1.5-1.1-3-2.1-4.6-2.9c-0.9-0.5-1.8-1-2.8-1.4c1.2,0.4-0.4-0.2-0.6-0.2c-0.4-0.2-0.8-0.3-1.3-0.5c-1.8-0.6-3.7-1.1-5.6-1.4
	c-0.4-0.1-0.8-0.1-1.1-0.2c-0.3,0-0.7-0.1-0.8-0.1c-1-0.1-2.1-0.1-3.1-0.1c-2.5,0-5-2.2-4.9-4.9C711.6,923.2,713.6,920.9,716.3,921z
	"/>
<g>
	<path fill="#F6EBD9" d="M1050.3,1053.2c-1,0.3-2,0.7-3,1C1048.3,1053.9,1049.3,1053.6,1050.3,1053.2z"/>
	<path fill="#F6EBD9" d="M1054.5,1051.8c-1,0.3-1.9,0.7-2.9,1C1052.6,1052.4,1053.6,1052.1,1054.5,1051.8z"/>
	<path fill="#F6EBD9" d="M1058.8,1050.2c-1,0.4-2,0.8-3.1,1.1C1056.8,1050.9,1057.8,1050.6,1058.8,1050.2z"/>
	<path fill="#F6EBD9" d="M1046.1,1054.6c-1.4,0.4-2.8,0.9-4.2,1.3C1043.3,1055.5,1044.7,1055,1046.1,1054.6z"/>
	<path fill="#F6EBD9" d="M1063.3,1048.4c-1.1,0.5-2.3,0.9-3.4,1.4C1061,1049.3,1062.2,1048.9,1063.3,1048.4z"/>
	<path fill="#F6EBD9" d="M1156.4,861.3c-0.1-2.3-0.1-4.7-0.1-7c-0.4-22-1.7-44.1-5.7-65.8c-5.3-28.9-15.6-57.2-33.3-80.6
		c-37.2-49.2-103.7-69.5-163.5-64.1c-19.6,1.8-38.8,6.2-57.4,12.3c-14.6,4.8-30,8.7-43.9,15.5c-28.2,13.7-51.7,36.6-67.9,63.3
		c-22.7,37.3-32.4,81.3-34.8,124.8c-0.2,4.4-0.3,8.9-0.3,13.4c0-4.5,0.1-9,0.3-13.4c0.5-9.8,1.5-19.6,2.8-29.3
		c0.5,10.1,1.4,20.2,2.8,30.3c7.1,52.1,25.6,105.1,62.9,143.4c64.9,66.6,173.6,64.8,258.2,38.4c8.2-4.1,16.1-8.8,23.5-14.3
		c14.6-11,26.5-24.9,35.3-40.8c1.5-2.6,2.9-5.4,4.2-8.1c9.2-19.4,14.4-40.4,16.5-61.8C1157.8,898.8,1156.9,880,1156.4,861.3z"/>
	<path fill="#F6EBD9" d="M1076.5,1042.5c-4.1,2-8.3,3.9-12.5,5.6C1068.2,1046.4,1072.4,1044.6,1076.5,1042.5z"/>
</g>
<path fill="#F6EBD9" d="M1124,944.4c4.3-9.7,8.7-19.4,13.1-29.1c0.1-0.2,0.1-0.3,0.2-0.5c2.8-10.9,8.7-21.1,16.8-28.9
	c8.1-7.7,18.7-13,30.1-10.5c10.1,2.3,18.8,10.1,23,19.5c5,11.3,4.3,24.2,0.4,35.7c-6.5,19.4-22.5,37.9-43.7,40.5
	c-9.2,1.1-19.1-1.3-26.8-6.5c-3.9-2.6-7.3-6-9.8-9.9c-1.2-1.9-2.2-4-3-6.2C1123.8,947.1,1123.3,945.9,1124,944.4z"/>
<path fill="#34405A" d="M1191,918.9c-4.9,0-9.9,1-14.5,2.7c3.2-5.5,7.5-10.3,12.8-14c2.2-1.5,3.1-4.3,1.7-6.7
	c-1.2-2.1-4.5-3.3-6.7-1.7c-15.4,10.7-24.9,29-24.1,47.9c0.1,2.6,2.2,4.9,4.9,4.9c2.6,0,5-2.2,4.9-4.9c-0.2-3.9,0.2-7.8,1-11.5
	c1.5-1.1,3-2.1,4.6-2.9c0.9-0.5,1.8-1,2.8-1.4c-1.2,0.4,0.4-0.2,0.6-0.2c0.4-0.2,0.8-0.3,1.3-0.5c1.8-0.6,3.7-1.1,5.6-1.4
	c0.4-0.1,0.8-0.1,1.1-0.2c0.3,0,0.7-0.1,0.8-0.1c1-0.1,2.1-0.1,3.1-0.1c2.5,0,5-2.2,4.9-4.9C1195.7,921.2,1193.7,918.9,1191,918.9z"
	/>
<path fill="#34405A" d="M872.3,911.7c-0.4-3.1-1.6-6.2-4-8.4c-2.2-2.1-5.2-3.4-8.2-3c-1.8,0.2-3.6,0.8-5,1.8c-2.1,0.7-4,2.2-5,4.2
	c-1.5,1.9-2.3,4.1-2.6,6.7c-0.1,0.6-0.1,1.2-0.1,1.8c-0.4,4,0.6,8.2,2.8,11.6c1.7,2.6,4.2,5.2,7.3,6c3.6,1,7.2-0.3,9.9-2.7
	c2.3-2,3.5-5.1,4.2-8C872.2,918.3,872.7,914.9,872.3,911.7z"/>
<path fill="#34405A" d="M1082.5,911.7c-0.4-3.1-1.6-6.2-4-8.4c-2.2-2.1-5.2-3.4-8.2-3c-1.8,0.2-3.6,0.8-5,1.8c-2.1,0.7-4,2.2-5,4.2
	c-1.5,1.9-2.3,4.1-2.6,6.7c-0.1,0.6-0.1,1.2-0.1,1.8c-0.4,4,0.6,8.2,2.8,11.6c1.7,2.6,4.2,5.2,7.3,6c3.6,1,7.2-0.3,9.9-2.7
	c2.3-2,3.5-5.1,4.2-8C1082.4,918.3,1082.9,914.9,1082.5,911.7z"/>
<g>
	<path fill="#34405A" d="M957.2,887.4c-0.7,8.2-1.4,16.5-2.1,24.7c0.7-1.2,1.3-2.3,2-3.5c-10.2,4.3-26.1,16.7-18.8,29.4
		c7.2,12.5,26,13.5,37.9,9c4.8-1.8,2.7-9.6-2.1-7.8c-8.3,3.1-21.5,3.8-27.9-3.9c-6.6-8.1,8.9-17.2,14.9-19.8c1.3-0.6,1.9-2.2,2-3.5
		c0.7-8.2,1.4-16.5,2.1-24.7C965.7,882.2,957.7,882.2,957.2,887.4L957.2,887.4z"/>
</g>
<g>
	<path fill="#34405A" d="M943.9,984c11.7,7.2,29.1,7.6,42.1,4.6c12-2.8,23.1-10.4,28.2-21.9c2.1-4.7-4.8-8.8-7-4.1
		c-4.3,9.7-13.2,15.8-23.4,18.2c-11,2.6-26.1,2.3-35.9-3.8C943.6,974.3,939.5,981.2,943.9,984L943.9,984z"/>
</g>
<g>
	<path fill="#34405A" d="M1000,962.1c6.6-0.1,12.9,4.1,17.5,8.5c3.8,3.6,9.5-2.1,5.7-5.7c-6.2-5.9-14.5-11-23.2-10.8
		C994.8,954.1,994.8,962.2,1000,962.1L1000,962.1z"/>
</g>
<path fill="#FBAB36" d="M1150.3,733.4c-8.3-21.5-19.5-41.6-33.9-59.7c-14.9-18.8-33.3-34.3-53.6-47c-21.4-13.5-44.3-24.8-67.8-34.2
	c-23.3-9.4-47.5-16.7-72.2-21.3c-45.3-8.5-93.9-9-136.8,9.9c-10.2,4.5-19.9,10.2-28.7,17c-9,6.9-17.8,16.4-17.1,28.6
	c0.7,12.1,9.3,22,18.1,29.5c3.7,3.2,7.7,6.1,11.8,8.7c-22.7,0.2-45.4,6.2-65,17.8c-14.1,8.4-30.8,21.4-28.7,39.9
	c1.9,16.9,16.9,29.3,32.2,34.5c0.5,0.2,0.9,0.3,1.4,0.4c-7.7,6.1-14.1,13.9-18.1,23.5c-5.6,13.2-6.6,28.7-1.1,42.1
	c5,12.2,14.9,21.1,27.3,25.2c-0.2,0.3-0.4,0.5-0.6,0.8c-7.8,11.8-6.9,28.8,5.3,37.3c6.3,4.4,14.4,5.8,21.8,7
	c7.5,1.2,15.1,1.9,22.6,1.9c15,0.1,30-2.2,44.3-6.6c14.3-4.4,28-10.9,40.3-19.3c12-8.2,22.1-18.3,32-28.8c9.2-9.8,18.4-20,29.4-27.7
	c5.3-3.7,11-6.8,17.2-8.8c5.9-1.9,13.5-3.8,18.9,0.2c5.3,4,7.4,11,9.1,17.1c2.1,7.8,4,16.2,9.5,22.4c5.9,6.6,14.8,6.1,20.8-0.1
	c1.4-1.5,2.7-3.1,3.8-4.9c2.6,4.6,6.4,8.5,11.1,11.1c8.4,4.6,18.6,5.2,27.8,2.5c6-1.8,11.3-4.9,15.8-9.1c0,0.1,0.1,0.2,0.1,0.3
	c7.1,15.2,26.4,13.9,37.3,3.9c4.1-3.7,7.1-8.4,9.6-13.2c6.2,11,12.4,21.9,18.7,32.8c6.2,10.8,14.4,22.5,27.7,24.6
	c5.1,0.8,10.2,0.3,14.7-2c0.3,0.2,0.7,0.4,1.1,0.5c2.3,0.6,5.6-0.8,6-3.4C1170.8,835.5,1169,782,1150.3,733.4z"/>
<path fill="#FBAB36" d="M811.5,868.3c-2.8,0.1-5.6,0.2-8.4,0.3c1.2-2.8,2.5-5.7,3.8-8.5c1.3-2.8-2.9-5.3-4.2-2.5
	c-1.6,3.7-3.2,7.3-4.8,11c-10,0-20-0.7-29.9-1.9c-2.9-0.4-6.8-1.7-9.6-0.4c-2.8,1.3-3.6,4.6-4.4,7.3c-2.1,6.4-3.6,13-4.6,19.7
	c-4.1,27,0.1,54.4,8.6,80.1c4.9,14.7,11.1,29,17.9,42.9c1.2,2.5,5.3,0.7,4.4-1.9c-13.4-40.2-2.7-83,12.4-121.1
	c2.7-6.7,5.5-13.3,8.3-19.9c3.5,0,7.1-0.1,10.6-0.3C814.6,873,814.6,868.2,811.5,868.3z"/>
<path fill="#FBAB36" d="M818.3,1004.1c-37.3-38.3-55.8-91.3-62.9-143.4c-1.4-10.1-2.3-20.2-2.8-30.3c-1.3,9.7-2.3,19.5-2.8,29.3
	c-1,17.8,0.5,36.3,2.2,54c1.9,19.2,5.7,38,12.7,56c0.9,2.4,1.9,4.8,3,7.1c8.4,18.9,20.7,36.4,36.8,49.5
	c17.6,14.3,38.7,23.3,60.3,29.7c23.5,6.9,47.7,11.5,72.2,12.8c12.2,0.6,24.5,0.5,36.7-0.4c23.1-1.7,46.1-6,68.3-12.6
	c11.8-3.5,23.5-7.9,34.6-13.4C991.9,1068.9,883.2,1070.7,818.3,1004.1z"/>
<path fill="#FBAB36" d="M1162.4,856.5c-0.2-1.4-1.9-1.9-3-1.7c-5.7,1.1-11.4,2.2-17.1,3.3c-5.1,1-10.4,1.6-15.3,3.1
	c-1.4,0.4-2.8,1.1-4,1.9c-0.4-2.8-0.7-5.5-1.1-8.3c-0.4-3.1-5.1-1.8-4.7,1.3c0.6,4.1,1.1,8.3,1.7,12.4c0,0.2-0.1,0.3-0.2,0.5
	c-0.4,2.2-0.1,4.3,1,6c4,31.5,7,63.2,9.2,94.9c0.7,10.8,1.3,21.6,1.8,32.4c0.1,2.3,3.3,3.4,4.5,1.2c19-34.8,29.2-74.3,29.4-114
	C1164.6,878.6,1163.8,867.5,1162.4,856.5z"/>
<path fill="#F6EBD9" d="M1114.9,1227.1c-2.3-15.7-4.9-31.4-8-47c-3.6-18.5-8-36.9-14.5-54.6c-5.9-15.9-13.5-31.2-23.7-44.8
	c-4.9-6.6-10.4-12.9-16.5-18.5c-2.9-2.7-5.9-5.2-9-7.5c-1.6-1.2-4-3.7-6.1-3.8c-3.3-0.2-6.9,0.5-10.1,0.8
	c-11.8,0.9-23.5,1.8-35.3,2.8c-27.2,2.2-54.9,3.6-81.8-2.3c-1.6-0.3-3.1-0.9-4.7-1.2c-2.5-0.4-5.4,2.6-7.3,4.1
	c-3.2,2.5-6.3,5.1-9.2,7.8c-11.9,11.2-21.5,24.7-29,39.1c-17.5,33.4-24.4,71.5-30.4,108.4c-0.9,5.6-1.8,11.2-2.6,16.8H1114.9z"/>
<path fill="#38ADA0" d="M1116.9,1241.5c-0.1-1-0.3-2-0.4-3.1c-2.6-19.5-5.8-39-9.6-58.3c-3.6-18.5-8-36.9-14.5-54.6
	c-5.9-15.9-13.5-31.2-23.7-44.8c-3.8-5.1-8-10.1-12.4-14.6c-2.1-2.2-4.3-4.2-6.6-6.2c-1-0.9-7-5-7-6.2c0-0.4,0.3-0.8,0.7-0.8
	c-5.9,1.3-11.8,2.6-17.7,3.9c-0.2,10.3-1.7,20.6-4.6,30.5c-1.2,4.1-2.6,8.3-4.8,12c-3,5-7.3,9.1-11.9,12.5c-3.7,2.7-7.6,5.1-11.8,7
	c-13.7,6.4-29.8,7.7-44,2.2c-7-2.7-12.5-5.2-17.5-11.1c-4.7-5.4-8-11.9-10.1-18.7c-3.6-11.7-3.8-24.2-3.9-36.5
	c-4-0.7-7.7-2.8-11.6-3.6c-3.1-0.6-5.2,2.1-7.5,3.8c-3.2,2.5-6.3,5.1-9.2,7.8c-11.9,11.2-21.5,24.7-29,39.1
	c-17.5,33.4-24.4,71.5-30.4,108.4c-1.7,10.4-3.2,20.8-4.6,31.2H1116.9z"/>
<path fill="#F6EBD9" d="M818.3,1004.1c-37.3-38.3-55.8-91.3-62.9-143.4c-1.4-10.1-2.3-20.2-2.8-30.3c-1.3,9.7-2.3,19.5-2.8,29.3
	c-1,17.8,0.5,36.3,2.2,54c1.9,19.2,5.7,38,12.7,56c0.9,2.4,1.9,4.8,3,7.1c8.4,18.9,20.7,36.4,36.8,49.5
	c17.6,14.3,38.7,23.3,60.3,29.7c23.5,6.9,47.7,11.5,72.2,12.8c12.2,0.6,24.5,0.5,36.7-0.4c23.1-1.7,46.1-6,68.3-12.6
	c11.8-3.5,23.5-7.9,34.6-13.4C991.9,1068.9,883.2,1070.7,818.3,1004.1z"/>
<g>
	<path fill="#38ADA0" d="M1189.6,1223.9H0v37c0,13.4,7.3,24.2,16.2,24.2h1172.6c0.4,0,0.8-0.5,0.8-1.1V1223.9z"/>
	<polygon fill="#139A88" points="1302.5,1140.4 112.9,1140.4 0,1225.9 1189.6,1225.9 	"/>
	<polygon fill="#187564" points="1189.6,1225.9 1189.6,1284 1302.5,1191.5 1302.5,1140.4 	"/>
</g>
<g>
	<path fill="#34405A" d="M564.3,1163.3c-26,0-28,39.2-2,40.9c0.9,0.1,1.9,0.1,2.9,0.1h420.4c1,0,1.9,0,2.9-0.1
		c26-1.7,24-40.9-2-40.9H564.3z"/>
	<path fill="#34405A" d="M738.4,1204.4H273.3c-10,0-18.6-7.2-20.4-17l-68.1-336.1c0-24,19.5-43.4,43.4-43.4h420.4
		c24,0,43.4,19.5,43.4,43.4l66.7,328.5C761.1,1192.6,751.3,1204.4,738.4,1204.4z"/>
	<path fill="#455470" d="M754.1,1154.3c-34,8.7-68.7,14.8-103.5,19.1c-96.2,11.8-201.8,4.9-286.4-46.6
		c-44.1-26.9-98.1-127.1-122.7-172.5c-23.2-42.8-34.8-89.8-39.1-137.8c-10.7,7.9-17.6,20.6-17.6,34.9l68.1,336.1
		c1.8,9.9,10.4,17,20.4,17h465.1c13,0,22.8-11.8,20.4-24.5L754.1,1154.3z"/>
	<rect x="824.8" y="1186.1" fill="#C6B9DA" width="94.1" height="9.9"/>
	<rect x="931.9" y="1186.1" fill="#653C99" width="30.2" height="9.9"/>
</g>
<circle fill="#38ADA0" cx="443.8" cy="1010.4" r="34.6"/>
</svg>
